<?xml version="1.0" encoding="UTF-8" standalone="no"?>
<!-- Created with Inkscape (http://www.inkscape.org/) -->

<svg
   xmlns:dc="http://purl.org/dc/elements/1.1/"
   xmlns:cc="http://creativecommons.org/ns#"
   xmlns:rdf="http://www.w3.org/1999/02/22-rdf-syntax-ns#"
   xmlns:svg="http://www.w3.org/2000/svg"
   xmlns="http://www.w3.org/2000/svg"
   xmlns:sodipodi="http://sodipodi.sourceforge.net/DTD/sodipodi-0.dtd"
   xmlns:inkscape="http://www.inkscape.org/namespaces/inkscape"
   width="300"
   height="140"
   viewBox="0 0 79.374998 37.041668"
   version="1.1"
   id="svg8"
   inkscape:version="0.92.0 r15299"
   sodipodi:docname="logo.svg">
  <defs
     id="defs2" />
  <sodipodi:namedview
     id="base"
     pagecolor="#ffffff"
     bordercolor="#666666"
     borderopacity="1.0"
     inkscape:pageopacity="0.0"
     inkscape:pageshadow="2"
     inkscape:zoom="2.8"
     inkscape:cx="190.91414"
     inkscape:cy="80.947073"
     inkscape:document-units="mm"
     inkscape:current-layer="layer1"
     showgrid="false"
     units="px"
     inkscape:window-width="1920"
     inkscape:window-height="1001"
     inkscape:window-x="-9"
     inkscape:window-y="-9"
     inkscape:window-maximized="1" />
  <metadata
     id="metadata5">
    <rdf:RDF>
      <cc:Work
         rdf:about="">
        <dc:format>image/svg+xml</dc:format>
        <dc:type
           rdf:resource="http://purl.org/dc/dcmitype/StillImage" />
        <dc:title></dc:title>
      </cc:Work>
    </rdf:RDF>
  </metadata>
  <g
     inkscape:label="Layer 1"
     inkscape:groupmode="layer"
     id="layer1"
     transform="translate(0,-259.95832)">
    <g
       aria-label="Lend"
       style="font-style:normal;font-variant:normal;font-weight:normal;font-stretch:normal;font-size:33.77119827px;line-height:21.10699654px;font-family:'Varela Round';-inkscape-font-specification:'Varela Round';letter-spacing:0px;word-spacing:0px;fill:#00acff;fill-opacity:1;stroke:none;stroke-width:0.84427983"
       id="text4487"
       transform="translate(-0.1795447)">
      <path
         d="m 4.492667,286.26202 q -0.8780511,0 -1.5197039,-0.60788 -0.6078816,-0.64165 -0.6078816,-1.5197 v -20.06009 q 0,-0.64166 0.4390256,-1.08068 0.4390256,-0.4728 1.0806784,-0.4728 0.6416527,0 1.0806783,0.4728 0.4727968,0.43902 0.4727968,1.08068 v 19.11449 H 16.481442 q 0.641653,0 1.080679,0.4728 0.472797,0.43903 0.472797,1.08068 0,0.64165 -0.472797,1.08068 -0.439026,0.43902 -1.080679,0.43902 z"
         style="fill:#00acff;fill-opacity:1;stroke-width:0.84427983"
         id="path4497"
         inkscape:connector-curvature="0" />
      <path
         d="m 28.915049,286.59974 q -4.120087,0 -6.450299,-2.33022 -2.296442,-2.36398 -2.296442,-6.61915 0,-2.39776 0.878051,-4.42403 0.878052,-2.02627 2.701696,-3.2758 1.823645,-1.24954 4.49157,-1.24954 2.499068,0 4.322713,1.18199 1.823645,1.14822 2.769238,3.10695 0.945594,1.92496 0.945594,4.2214 0,0.64166 -0.439026,1.08068 -0.405254,0.43903 -1.114449,0.43903 H 23.275259 q 0.270169,2.36398 1.756102,3.68106 1.485933,1.31707 4.153857,1.31707 1.418391,0 2.465298,-0.27017 1.080678,-0.27017 2.093814,-0.77673 0.27017,-0.13509 0.607882,-0.13509 0.540339,0 0.945593,0.37149 0.405254,0.37148 0.405254,0.94559 0,0.74297 -0.878051,1.24953 -1.317076,0.74297 -2.600382,1.11445 -1.283305,0.37149 -3.309577,0.37149 z m 4.322713,-10.36776 q -0.101314,-1.65479 -0.878051,-2.76924 -0.742967,-1.11445 -1.857416,-1.62102 -1.11445,-0.54034 -2.26267,-0.54034 -1.148221,0 -2.262671,0.54034 -1.114449,0.50657 -1.857416,1.62102 -0.742966,1.11445 -0.844279,2.76924 z"
         style="fill:#00acff;fill-opacity:1;stroke-width:0.84427983"
         id="path4499"
         inkscape:connector-curvature="0" />
      <path
         d="m 41.863139,286.43088 q -0.641653,0 -1.080678,-0.43903 -0.439026,-0.43902 -0.439026,-1.08067 v -14.48785 q 0,-0.64165 0.439026,-1.08068 0.439025,-0.47279 1.080678,-0.47279 0.641653,0 1.080678,0.47279 0.472797,0.43903 0.472797,1.08068 v 1.38462 q 1.283306,-1.41839 2.769238,-2.26267 1.485933,-0.84428 3.512205,-0.84428 1.857416,0 3.208264,0.87805 1.384619,0.87805 2.093814,2.39776 0.742966,1.5197 0.742966,3.34335 v 9.59102 q 0,0.64165 -0.472796,1.08067 -0.439026,0.43903 -1.080679,0.43903 -0.641652,0 -1.080678,-0.43903 -0.439026,-0.43902 -0.439026,-1.08067 v -9.25331 q 0,-4.12009 -3.714831,-4.12009 -1.68856,0 -3.039408,0.87805 -1.317077,0.87805 -2.499069,2.36399 v 10.13136 q 0,0.64165 -0.472797,1.08067 -0.439025,0.43903 -1.080678,0.43903 z"
         style="fill:#00acff;fill-opacity:1;stroke-width:0.84427983"
         id="path4501"
         inkscape:connector-curvature="0" />
      <path
         d="m 68.048481,286.59974 q -2.093815,0 -3.985002,-1.04691 -1.857416,-1.08068 -3.039408,-3.10695 -1.14822,-2.06004 -1.14822,-4.79551 0,-2.73547 1.14822,-4.76174 1.181992,-2.06004 3.039408,-3.10695 1.891187,-1.08068 3.985002,-1.08068 3.309577,0 5.774875,2.56661 v -8.27394 q 0,-0.67543 0.439025,-1.11445 0.472797,-0.43903 1.11445,-0.43903 0.641652,0 1.080678,0.4728 0.439026,0.43903 0.439026,1.08068 v 21.91751 q 0,0.64165 -0.439026,1.08067 -0.439026,0.43903 -1.080678,0.43903 -0.641653,0 -1.11445,-0.43903 -0.439025,-0.43902 -0.439025,-1.08067 v -0.87806 q -2.465298,2.56662 -5.774875,2.56662 z m 0.439025,-2.87056 q 1.553475,0 2.904323,-0.67542 1.384619,-0.7092 2.431527,-1.85742 v -7.09195 q -1.046908,-1.14822 -2.431527,-1.82364 -1.350848,-0.7092 -2.904323,-0.7092 -2.499068,0 -4.018772,1.58725 -1.519704,1.58725 -1.519704,4.49157 0,2.90432 1.519704,4.49157 1.519704,1.58724 4.018772,1.58724 z"
         style="fill:#00acff;fill-opacity:1;stroke-width:0.84427983"
         id="path4503"
         inkscape:connector-curvature="0" />
    </g>
    <g
       aria-label="The easy way to share"
       style="font-style:normal;font-variant:normal;font-weight:normal;font-stretch:normal;font-size:8.04569912px;line-height:5.02856207px;font-family:'Varela Round';-inkscape-font-specification:'Varela Round';letter-spacing:0px;word-spacing:0px;fill:#6d6d6d;fill-opacity:1;stroke:none;stroke-width:0.20114248"
       id="text4518">
      <path
         d="m 5.7919553,288.16742 v 0.65572 H 3.9293759 v 5.10902 H 3.1489431 v -5.10902 h -1.870625 v -0.65572 z"
         style="font-style:normal;font-variant:normal;font-weight:normal;font-stretch:normal;font-family:Lato;-inkscape-font-specification:Lato;fill:#6d6d6d;fill-opacity:1;stroke-width:0.20114248"
         id="path4506"
         inkscape:connector-curvature="0" />
      <path
         d="m 6.4987194,293.93216 v -5.92566 h 0.7160672 v 2.39762 q 0.2614853,-0.27758 0.5792904,-0.44251 0.3178051,-0.16896 0.7321586,-0.16896 0.3338965,0 0.587336,0.11264 0.2574624,0.10861 0.4264221,0.31378 0.1729825,0.20114 0.2614852,0.48676 0.088503,0.28563 0.088503,0.63159 v 2.59474 H 9.1739144 v -2.59474 q 0,-0.46263 -0.213211,-0.71607 -0.2091882,-0.25746 -0.643656,-0.25746 -0.3178051,0 -0.5953817,0.15287 -0.2735538,0.15287 -0.5068791,0.41435 v 3.00105 z"
         style="font-style:normal;font-variant:normal;font-weight:normal;font-stretch:normal;font-family:Lato;-inkscape-font-specification:Lato;fill:#6d6d6d;fill-opacity:1;stroke-width:0.20114248"
         id="path4508"
         inkscape:connector-curvature="0" />
      <path
         d="m 12.590445,289.79265 q 0.366079,0 0.675839,0.12471 0.309759,0.12068 0.535039,0.35401 0.225279,0.2293 0.349988,0.57124 0.128731,0.33792 0.128731,0.77239 0,0.16896 -0.03621,0.22528 -0.03621,0.0563 -0.136777,0.0563 h -2.7114 q 0.008,0.38619 0.104594,0.67181 0.09655,0.28563 0.265508,0.47872 0.168959,0.18908 0.402285,0.28562 0.233325,0.0925 0.52297,0.0925 0.269531,0 0.462628,-0.0603 0.197119,-0.0644 0.337919,-0.13678 0.1408,-0.0724 0.233326,-0.13275 0.09655,-0.0644 0.164936,-0.0644 0.0885,0 0.136777,0.0684 l 0.201143,0.26148 q -0.132754,0.16092 -0.317805,0.2816 -0.185051,0.11667 -0.398263,0.1931 -0.209188,0.0764 -0.434467,0.11264 -0.22528,0.0402 -0.446537,0.0402 -0.422399,0 -0.780432,-0.1408 -0.354011,-0.14482 -0.615496,-0.41838 -0.257463,-0.27757 -0.402285,-0.68388 -0.144823,-0.40631 -0.144823,-0.9333 0,-0.42642 0.128731,-0.79653 0.132754,-0.3701 0.378148,-0.63963 0.245394,-0.27355 0.599405,-0.42642 0.35401,-0.15689 0.796524,-0.15689 z m 0.01609,0.52699 q -0.518947,0 -0.816638,0.30171 -0.297691,0.2977 -0.370102,0.82871 h 2.21659 q 0,-0.24942 -0.06839,-0.45458 -0.06839,-0.20919 -0.201142,-0.35803 -0.132754,-0.15287 -0.325851,-0.23333 -0.189074,-0.0845 -0.434468,-0.0845 z"
         style="font-style:normal;font-variant:normal;font-weight:normal;font-stretch:normal;font-family:Lato;-inkscape-font-specification:Lato;fill:#6d6d6d;fill-opacity:1;stroke-width:0.20114248"
         id="path4510"
         inkscape:connector-curvature="0" />
      <path
         d="m 18.357577,289.79265 q 0.366079,0 0.675838,0.12471 0.30976,0.12068 0.535039,0.35401 0.22528,0.2293 0.349988,0.57124 0.128732,0.33792 0.128732,0.77239 0,0.16896 -0.03621,0.22528 -0.03621,0.0563 -0.136777,0.0563 H 17.16279 q 0.008,0.38619 0.104595,0.67181 0.09655,0.28563 0.265508,0.47872 0.168959,0.18908 0.402285,0.28562 0.233325,0.0925 0.52297,0.0925 0.269531,0 0.462628,-0.0603 0.197119,-0.0644 0.337919,-0.13678 0.1408,-0.0724 0.233325,-0.13275 0.09655,-0.0644 0.164937,-0.0644 0.0885,0 0.136777,0.0684 l 0.201143,0.26148 q -0.132755,0.16092 -0.317806,0.2816 -0.185051,0.11667 -0.398262,0.1931 -0.209188,0.0764 -0.434467,0.11264 -0.22528,0.0402 -0.446537,0.0402 -0.422399,0 -0.780433,-0.1408 -0.35401,-0.14482 -0.615496,-0.41838 -0.257462,-0.27757 -0.402285,-0.68388 -0.144822,-0.40631 -0.144822,-0.9333 0,-0.42642 0.128731,-0.79653 0.132754,-0.3701 0.378148,-0.63963 0.245394,-0.27355 0.599405,-0.42642 0.35401,-0.15689 0.796524,-0.15689 z m 0.01609,0.52699 q -0.518947,0 -0.816638,0.30171 -0.297691,0.2977 -0.370102,0.82871 h 2.21659 q 0,-0.24942 -0.06839,-0.45458 -0.06839,-0.20919 -0.201142,-0.35803 -0.132754,-0.15287 -0.325851,-0.23333 -0.189074,-0.0845 -0.434468,-0.0845 z"
         style="font-style:normal;font-variant:normal;font-weight:normal;font-stretch:normal;font-family:Lato;-inkscape-font-specification:Lato;fill:#6d6d6d;fill-opacity:1;stroke-width:0.20114248"
         id="path4512"
         inkscape:connector-curvature="0" />
      <path
         d="m 23.948834,293.93216 h -0.317805 q -0.104594,0 -0.16896,-0.0322 -0.06436,-0.0322 -0.08448,-0.13678 l -0.08046,-0.37815 q -0.160914,0.14482 -0.313783,0.26149 -0.152868,0.11264 -0.321828,0.19309 -0.168959,0.0764 -0.362056,0.11667 -0.189074,0.0402 -0.422399,0.0402 -0.237348,0 -0.446537,-0.0644 -0.205165,-0.0684 -0.358033,-0.20114 -0.152869,-0.13276 -0.245394,-0.3339 -0.0885,-0.20516 -0.0885,-0.48274 0,-0.24137 0.132754,-0.46263 0.132754,-0.22528 0.426422,-0.39826 0.297691,-0.17298 0.77641,-0.2816 0.478719,-0.11264 1.17065,-0.12873 v -0.31781 q 0,-0.47469 -0.205166,-0.71606 -0.201142,-0.2454 -0.599404,-0.2454 -0.261486,0 -0.442514,0.0684 -0.177005,0.0644 -0.309759,0.14885 -0.128731,0.0805 -0.22528,0.14884 -0.09253,0.0644 -0.185051,0.0644 -0.07241,0 -0.128731,-0.0362 -0.0523,-0.0402 -0.08448,-0.0965 l -0.128731,-0.2293 q 0.337919,-0.32585 0.728136,-0.48676 0.390216,-0.16092 0.864912,-0.16092 0.341943,0 0.607451,0.11264 0.265508,0.11264 0.446536,0.31378 0.181028,0.20115 0.273554,0.48677 0.09253,0.28562 0.09253,0.62756 z m -1.858556,-0.43849 q 0.189074,0 0.345965,-0.0362 0.156891,-0.0402 0.293668,-0.10861 0.1408,-0.0724 0.265508,-0.17299 0.128731,-0.10057 0.249417,-0.2293 v -0.84882 q -0.494811,0.0161 -0.840776,0.0805 -0.345965,0.0603 -0.563199,0.16091 -0.217234,0.10057 -0.317805,0.23735 -0.09655,0.13678 -0.09655,0.30574 0,0.16091 0.0523,0.27757 0.0523,0.11666 0.140799,0.1931 0.0885,0.0724 0.209188,0.10862 0.120686,0.0322 0.261486,0.0322 z"
         style="font-style:normal;font-variant:normal;font-weight:normal;font-stretch:normal;font-family:Lato;-inkscape-font-specification:Lato;fill:#6d6d6d;fill-opacity:1;stroke-width:0.20114248"
         id="path4514"
         inkscape:connector-curvature="0" />
      <path
         d="m 27.374794,290.52883 q -0.04828,0.0885 -0.148846,0.0885 -0.06034,0 -0.136777,-0.0442 -0.07643,-0.0442 -0.189074,-0.0965 -0.108617,-0.0563 -0.261485,-0.10057 -0.152868,-0.0483 -0.362056,-0.0483 -0.181029,0 -0.325851,0.0483 -0.144823,0.0442 -0.249417,0.12471 -0.100571,0.0805 -0.156891,0.18907 -0.0523,0.1046 -0.0523,0.22931 0,0.15689 0.0885,0.26148 0.09252,0.10459 0.241371,0.18103 0.148845,0.0764 0.337919,0.13678 0.189074,0.0563 0.386194,0.1247 0.201142,0.0644 0.390216,0.14483 0.189074,0.0804 0.337919,0.20114 0.148846,0.12068 0.237348,0.29769 0.09253,0.17298 0.09253,0.41838 0,0.2816 -0.100571,0.52297 -0.100571,0.23734 -0.297691,0.41435 -0.19712,0.17298 -0.482742,0.27355 -0.285622,0.10058 -0.659747,0.10058 -0.426422,0 -0.772387,-0.13678 -0.345966,-0.1408 -0.587337,-0.35804 l 0.16896,-0.27355 q 0.03218,-0.0523 0.07643,-0.0805 0.04425,-0.0282 0.116663,-0.0282 0.07241,0 0.152868,0.0563 0.08046,0.0563 0.193097,0.12471 0.116663,0.0684 0.277577,0.12471 0.164936,0.0563 0.41033,0.0563 0.209188,0 0.36608,-0.0523 0.156891,-0.0563 0.261485,-0.14884 0.104594,-0.0925 0.152868,-0.21321 0.0523,-0.12069 0.0523,-0.25747 0,-0.16896 -0.09252,-0.27757 -0.0885,-0.11264 -0.237349,-0.18908 -0.148845,-0.0804 -0.341942,-0.13677 -0.189074,-0.0604 -0.390216,-0.12471 -0.19712,-0.0644 -0.390217,-0.14482 -0.189073,-0.0845 -0.337919,-0.20919 -0.148845,-0.12471 -0.241371,-0.30574 -0.0885,-0.18505 -0.0885,-0.44654 0,-0.23332 0.09655,-0.44653 0.09655,-0.21724 0.281599,-0.37815 0.185051,-0.16494 0.454582,-0.26148 0.269531,-0.0966 0.615496,-0.0966 0.402285,0 0.72009,0.12873 0.321828,0.12471 0.555154,0.34596 z"
         style="font-style:normal;font-variant:normal;font-weight:normal;font-stretch:normal;font-family:Lato;-inkscape-font-specification:Lato;fill:#6d6d6d;fill-opacity:1;stroke-width:0.20114248"
         id="path4516"
         inkscape:connector-curvature="0" />
      <path
         d="m 29.724893,295.13499 q -0.03621,0.0805 -0.09253,0.12873 -0.0523,0.0483 -0.164937,0.0483 H 28.93641 l 0.744227,-1.61719 -1.681551,-3.8378 h 0.619519 q 0.09253,0 0.144823,0.0483 0.0523,0.0443 0.07643,0.10057 l 1.090192,2.56658 q 0.03621,0.0885 0.06034,0.177 0.02816,0.0885 0.04827,0.18103 0.02816,-0.0925 0.05632,-0.18103 0.02816,-0.0885 0.06436,-0.18103 l 1.05801,-2.56255 q 0.02414,-0.0644 0.08046,-0.1046 0.06034,-0.0442 0.128731,-0.0442 h 0.571245 z"
         style="font-style:normal;font-variant:normal;font-weight:normal;font-stretch:normal;font-family:Lato;-inkscape-font-specification:Lato;fill:#6d6d6d;fill-opacity:1;stroke-width:0.20114248"
         id="path4518"
         inkscape:connector-curvature="0" />
      <path
         d="m 33.671938,289.85701 h 0.563199 q 0.0885,0 0.144822,0.0442 0.05632,0.0443 0.07644,0.1046 l 0.780432,2.6229 q 0.03218,0.14482 0.06034,0.2816 0.02816,0.13275 0.04827,0.26953 0.03218,-0.13678 0.07241,-0.26953 0.04023,-0.13678 0.08448,-0.2816 l 0.86089,-2.63899 q 0.02011,-0.0604 0.06839,-0.10057 0.0523,-0.0402 0.128731,-0.0402 h 0.309759 q 0.08046,0 0.132754,0.0402 0.0523,0.0402 0.07241,0.10057 l 0.840775,2.63899 q 0.04425,0.1408 0.07643,0.27757 0.03621,0.13678 0.06839,0.26953 0.02011,-0.13275 0.0523,-0.27757 0.03218,-0.14483 0.06839,-0.26953 l 0.796524,-2.6229 q 0.02011,-0.0644 0.07643,-0.1046 0.05632,-0.0442 0.132754,-0.0442 h 0.539061 l -1.319494,4.07515 H 37.83961 q -0.104594,0 -0.144823,-0.13678 l -0.901118,-2.7637 q -0.03218,-0.0925 -0.0523,-0.18505 -0.02011,-0.0965 -0.04023,-0.18907 -0.02011,0.0925 -0.04023,0.18907 -0.02011,0.0965 -0.0523,0.18908 l -0.913187,2.75967 q -0.04425,0.13678 -0.164937,0.13678 h -0.539061 z"
         style="font-style:normal;font-variant:normal;font-weight:normal;font-stretch:normal;font-family:Lato;-inkscape-font-specification:Lato;fill:#6d6d6d;fill-opacity:1;stroke-width:0.20114248"
         id="path4520"
         inkscape:connector-curvature="0" />
      <path
         d="m 43.355943,293.93216 h -0.317806 q -0.104594,0 -0.168959,-0.0322 -0.06437,-0.0322 -0.08448,-0.13678 l -0.08046,-0.37815 q -0.160914,0.14482 -0.313782,0.26149 -0.152869,0.11264 -0.321828,0.19309 -0.16896,0.0764 -0.362057,0.11667 -0.189074,0.0402 -0.422399,0.0402 -0.237348,0 -0.446536,-0.0644 -0.205166,-0.0684 -0.358034,-0.20114 -0.152868,-0.13276 -0.245394,-0.3339 -0.0885,-0.20516 -0.0885,-0.48274 0,-0.24137 0.132754,-0.46263 0.132754,-0.22528 0.426422,-0.39826 0.297691,-0.17298 0.77641,-0.2816 0.478719,-0.11264 1.170649,-0.12873 v -0.31781 q 0,-0.47469 -0.205165,-0.71606 -0.201143,-0.2454 -0.599405,-0.2454 -0.261485,0 -0.442514,0.0684 -0.177005,0.0644 -0.309759,0.14885 -0.128731,0.0805 -0.22528,0.14884 -0.09253,0.0644 -0.185051,0.0644 -0.07241,0 -0.128731,-0.0362 -0.0523,-0.0402 -0.08448,-0.0965 l -0.128731,-0.2293 q 0.33792,-0.32585 0.728136,-0.48676 0.390216,-0.16092 0.864913,-0.16092 0.341942,0 0.60745,0.11264 0.265508,0.11264 0.446536,0.31378 0.181028,0.20115 0.273554,0.48677 0.09253,0.28562 0.09253,0.62756 z m -1.858557,-0.43849 q 0.189074,0 0.345965,-0.0362 0.156891,-0.0402 0.293668,-0.10861 0.1408,-0.0724 0.265508,-0.17299 0.128731,-0.10057 0.249417,-0.2293 v -0.84882 q -0.494811,0.0161 -0.840776,0.0805 -0.345965,0.0603 -0.563199,0.16091 -0.217234,0.10057 -0.317805,0.23735 -0.09655,0.13678 -0.09655,0.30574 0,0.16091 0.0523,0.27757 0.0523,0.11666 0.1408,0.1931 0.0885,0.0724 0.209188,0.10862 0.120685,0.0322 0.261485,0.0322 z"
         style="font-style:normal;font-variant:normal;font-weight:normal;font-stretch:normal;font-family:Lato;-inkscape-font-specification:Lato;fill:#6d6d6d;fill-opacity:1;stroke-width:0.20114248"
         id="path4522"
         inkscape:connector-curvature="0" />
      <path
         d="m 45.51772,295.13499 q -0.0362,0.0805 -0.09252,0.12873 -0.0523,0.0483 -0.164937,0.0483 h -0.531016 l 0.744227,-1.61719 -1.681551,-3.8378 h 0.619519 q 0.09253,0 0.144822,0.0483 0.0523,0.0443 0.07643,0.10057 l 1.090193,2.56658 q 0.0362,0.0885 0.06034,0.177 0.02816,0.0885 0.04827,0.18103 0.02816,-0.0925 0.05632,-0.18103 0.02816,-0.0885 0.06437,-0.18103 l 1.058009,-2.56255 q 0.02414,-0.0644 0.08046,-0.1046 0.06034,-0.0442 0.128732,-0.0442 h 0.571244 z"
         style="font-style:normal;font-variant:normal;font-weight:normal;font-stretch:normal;font-family:Lato;-inkscape-font-specification:Lato;fill:#6d6d6d;fill-opacity:1;stroke-width:0.20114248"
         id="path4524"
         inkscape:connector-curvature="0" />
      <path
         d="m 51.230796,293.99653 q -0.482741,0 -0.744227,-0.26954 -0.257462,-0.26953 -0.257462,-0.77641 v -2.49416 h -0.490788 q -0.06436,0 -0.108617,-0.0362 -0.04425,-0.0402 -0.04425,-0.12068 v -0.28563 l 0.667793,-0.0845 0.164937,-1.25915 q 0.008,-0.0603 0.0523,-0.0966 0.04425,-0.0402 0.11264,-0.0402 h 0.362056 v 1.40397 h 1.166627 v 0.51895 h -1.166627 v 2.44589 q 0,0.25746 0.124708,0.38217 0.124709,0.12471 0.321828,0.12471 0.11264,0 0.193097,-0.0282 0.08448,-0.0322 0.144823,-0.0684 0.06034,-0.0362 0.100571,-0.0644 0.04425,-0.0322 0.07643,-0.0322 0.05632,0 0.100571,0.0684 l 0.209189,0.34194 q -0.185051,0.17299 -0.446537,0.27356 -0.261485,0.0965 -0.539062,0.0965 z"
         style="font-style:normal;font-variant:normal;font-weight:normal;font-stretch:normal;font-family:Lato;-inkscape-font-specification:Lato;fill:#6d6d6d;fill-opacity:1;stroke-width:0.20114248"
         id="path4526"
         inkscape:connector-curvature="0" />
      <path
         d="m 54.646573,289.79265 q 0.446536,0 0.80457,0.14884 0.362056,0.14885 0.611473,0.4224 0.253439,0.27356 0.386193,0.66377 0.136777,0.3862 0.136777,0.86491 0,0.48275 -0.136777,0.86894 -0.132754,0.38619 -0.386193,0.65975 -0.249417,0.27355 -0.611473,0.4224 -0.358034,0.14482 -0.80457,0.14482 -0.446536,0 -0.808593,-0.14482 -0.358034,-0.14885 -0.611473,-0.4224 -0.25344,-0.27356 -0.390216,-0.65975 -0.136777,-0.38619 -0.136777,-0.86894 0,-0.47871 0.136777,-0.86491 0.136776,-0.39021 0.390216,-0.66377 0.253439,-0.27355 0.611473,-0.4224 0.362057,-0.14884 0.808593,-0.14884 z m 0,3.63665 q 0.603427,0 0.901118,-0.40228 0.297691,-0.40631 0.297691,-1.13042 0,-0.72814 -0.297691,-1.13445 -0.297691,-0.4063 -0.901118,-0.4063 -0.305737,0 -0.531016,0.10459 -0.22528,0.10459 -0.378148,0.30171 -0.148846,0.19712 -0.22528,0.48677 -0.07241,0.28562 -0.07241,0.64768 0,0.36205 0.07241,0.64768 0.07643,0.28562 0.22528,0.48274 0.152868,0.1931 0.378148,0.29769 0.225279,0.10459 0.531016,0.10459 z"
         style="font-style:normal;font-variant:normal;font-weight:normal;font-stretch:normal;font-family:Lato;-inkscape-font-specification:Lato;fill:#6d6d6d;fill-opacity:1;stroke-width:0.20114248"
         id="path4528"
         inkscape:connector-curvature="0" />
      <path
         d="m 61.364728,290.52883 q -0.04827,0.0885 -0.148845,0.0885 -0.06034,0 -0.136777,-0.0442 -0.07643,-0.0442 -0.189074,-0.0965 -0.108617,-0.0563 -0.261485,-0.10057 -0.152868,-0.0483 -0.362056,-0.0483 -0.181029,0 -0.325851,0.0483 -0.144823,0.0442 -0.249417,0.12471 -0.100571,0.0805 -0.156891,0.18907 -0.0523,0.1046 -0.0523,0.22931 0,0.15689 0.0885,0.26148 0.09253,0.10459 0.241371,0.18103 0.148845,0.0764 0.337919,0.13678 0.189074,0.0563 0.386193,0.1247 0.201143,0.0644 0.390217,0.14483 0.189074,0.0804 0.337919,0.20114 0.148846,0.12068 0.237348,0.29769 0.09253,0.17298 0.09253,0.41838 0,0.2816 -0.100571,0.52297 -0.100572,0.23734 -0.297691,0.41435 -0.19712,0.17298 -0.482742,0.27355 -0.285622,0.10058 -0.659747,0.10058 -0.426423,0 -0.772388,-0.13678 -0.345965,-0.1408 -0.587336,-0.35804 l 0.16896,-0.27355 q 0.03218,-0.0523 0.07643,-0.0805 0.04425,-0.0282 0.116663,-0.0282 0.07241,0 0.152868,0.0563 0.08046,0.0563 0.193097,0.12471 0.116663,0.0684 0.277577,0.12471 0.164936,0.0563 0.41033,0.0563 0.209188,0 0.366079,-0.0523 0.156892,-0.0563 0.261486,-0.14884 0.104594,-0.0925 0.152868,-0.21321 0.0523,-0.12069 0.0523,-0.25747 0,-0.16896 -0.09253,-0.27757 -0.0885,-0.11264 -0.237349,-0.18908 -0.148845,-0.0804 -0.341942,-0.13677 -0.189074,-0.0604 -0.390216,-0.12471 -0.19712,-0.0644 -0.390217,-0.14482 -0.189074,-0.0845 -0.337919,-0.20919 -0.148845,-0.12471 -0.241371,-0.30574 -0.0885,-0.18505 -0.0885,-0.44654 0,-0.23332 0.09655,-0.44653 0.09655,-0.21724 0.281599,-0.37815 0.185051,-0.16494 0.454582,-0.26148 0.269531,-0.0966 0.615496,-0.0966 0.402285,0 0.72009,0.12873 0.321828,0.12471 0.555153,0.34596 z"
         style="font-style:normal;font-variant:normal;font-weight:normal;font-stretch:normal;font-family:Lato;-inkscape-font-specification:Lato;fill:#6d6d6d;fill-opacity:1;stroke-width:0.20114248"
         id="path4530"
         inkscape:connector-curvature="0" />
      <path
         d="m 62.520043,293.93216 v -5.92566 h 0.716067 v 2.39762 q 0.261486,-0.27758 0.579291,-0.44251 0.317805,-0.16896 0.732158,-0.16896 0.333897,0 0.587336,0.11264 0.257463,0.10861 0.426422,0.31378 0.172983,0.20114 0.261486,0.48676 0.0885,0.28563 0.0885,0.63159 v 2.59474 h -0.716067 v -2.59474 q 0,-0.46263 -0.213211,-0.71607 -0.209188,-0.25746 -0.643656,-0.25746 -0.317805,0 -0.595382,0.15287 -0.273553,0.15287 -0.506879,0.41435 v 3.00105 z"
         style="font-style:normal;font-variant:normal;font-weight:normal;font-stretch:normal;font-family:Lato;-inkscape-font-specification:Lato;fill:#6d6d6d;fill-opacity:1;stroke-width:0.20114248"
         id="path4532"
         inkscape:connector-curvature="0" />
      <path
         d="m 69.991605,293.93216 h -0.317806 q -0.104594,0 -0.168959,-0.0322 -0.06437,-0.0322 -0.08448,-0.13678 l -0.08046,-0.37815 q -0.160914,0.14482 -0.313782,0.26149 -0.152869,0.11264 -0.321828,0.19309 -0.16896,0.0764 -0.362057,0.11667 -0.189074,0.0402 -0.422399,0.0402 -0.237348,0 -0.446536,-0.0644 -0.205166,-0.0684 -0.358034,-0.20114 -0.152868,-0.13276 -0.245394,-0.3339 -0.0885,-0.20516 -0.0885,-0.48274 0,-0.24137 0.132754,-0.46263 0.132754,-0.22528 0.426422,-0.39826 0.297691,-0.17298 0.77641,-0.2816 0.478719,-0.11264 1.170649,-0.12873 v -0.31781 q 0,-0.47469 -0.205165,-0.71606 -0.201143,-0.2454 -0.599405,-0.2454 -0.261485,0 -0.442513,0.0684 -0.177006,0.0644 -0.30976,0.14885 -0.128731,0.0805 -0.225279,0.14884 -0.09253,0.0644 -0.185052,0.0644 -0.07241,0 -0.128731,-0.0362 -0.0523,-0.0402 -0.08448,-0.0965 l -0.128731,-0.2293 q 0.33792,-0.32585 0.728136,-0.48676 0.390216,-0.16092 0.864913,-0.16092 0.341942,0 0.60745,0.11264 0.265508,0.11264 0.446536,0.31378 0.181029,0.20115 0.273554,0.48677 0.09253,0.28562 0.09253,0.62756 z m -1.858557,-0.43849 q 0.189074,0 0.345965,-0.0362 0.156891,-0.0402 0.293668,-0.10861 0.1408,-0.0724 0.265508,-0.17299 0.128731,-0.10057 0.249417,-0.2293 v -0.84882 q -0.494811,0.0161 -0.840776,0.0805 -0.345965,0.0603 -0.563199,0.16091 -0.217233,0.10057 -0.317805,0.23735 -0.09655,0.13678 -0.09655,0.30574 0,0.16091 0.0523,0.27757 0.0523,0.11666 0.1408,0.1931 0.0885,0.0724 0.209188,0.10862 0.120685,0.0322 0.261485,0.0322 z"
         style="font-style:normal;font-variant:normal;font-weight:normal;font-stretch:normal;font-family:Lato;-inkscape-font-specification:Lato;fill:#6d6d6d;fill-opacity:1;stroke-width:0.20114248"
         id="path4534"
         inkscape:connector-curvature="0" />
      <path
         d="m 71.084313,293.93216 v -4.07515 h 0.410331 q 0.116662,0 0.160914,0.0442 0.04425,0.0443 0.06034,0.15287 l 0.04827,0.63561 q 0.209188,-0.42642 0.514924,-0.66377 0.30976,-0.24137 0.724113,-0.24137 0.16896,0 0.305737,0.0402 0.136777,0.0362 0.253439,0.10459 l -0.09252,0.53504 q -0.02816,0.10057 -0.124708,0.10057 -0.05632,0 -0.172983,-0.0362 -0.116663,-0.0402 -0.325851,-0.0402 -0.374125,0 -0.627564,0.21723 -0.249417,0.21724 -0.418377,0.63159 v 2.59474 z"
         style="font-style:normal;font-variant:normal;font-weight:normal;font-stretch:normal;font-family:Lato;-inkscape-font-specification:Lato;fill:#6d6d6d;fill-opacity:1;stroke-width:0.20114248"
         id="path4536"
         inkscape:connector-curvature="0" />
      <path
         d="m 75.934613,289.79265 q 0.366079,0 0.675838,0.12471 0.30976,0.12068 0.535039,0.35401 0.22528,0.2293 0.349988,0.57124 0.128731,0.33792 0.128731,0.77239 0,0.16896 -0.0362,0.22528 -0.03621,0.0563 -0.136777,0.0563 h -2.711401 q 0.008,0.38619 0.104594,0.67181 0.09655,0.28563 0.265508,0.47872 0.16896,0.18908 0.402285,0.28562 0.233326,0.0925 0.522971,0.0925 0.269531,0 0.462628,-0.0603 0.197119,-0.0644 0.337919,-0.13678 0.1408,-0.0724 0.233325,-0.13275 0.09655,-0.0644 0.164937,-0.0644 0.0885,0 0.136777,0.0684 l 0.201142,0.26148 q -0.132754,0.16092 -0.317805,0.2816 -0.185051,0.11667 -0.398262,0.1931 -0.209188,0.0764 -0.434468,0.11264 -0.225279,0.0402 -0.446536,0.0402 -0.422399,0 -0.780433,-0.1408 -0.35401,-0.14482 -0.615496,-0.41838 -0.257462,-0.27757 -0.402285,-0.68388 -0.144822,-0.40631 -0.144822,-0.9333 0,-0.42642 0.128731,-0.79653 0.132754,-0.3701 0.378148,-0.63963 0.245394,-0.27355 0.599404,-0.42642 0.354011,-0.15689 0.796525,-0.15689 z m 0.01609,0.52699 q -0.518948,0 -0.816638,0.30171 -0.297691,0.2977 -0.370103,0.82871 h 2.216591 q 0,-0.24942 -0.06839,-0.45458 -0.06839,-0.20919 -0.201142,-0.35803 -0.132754,-0.15287 -0.325851,-0.23333 -0.189074,-0.0845 -0.434468,-0.0845 z"
         style="font-style:normal;font-variant:normal;font-weight:normal;font-stretch:normal;font-family:Lato;-inkscape-font-specification:Lato;fill:#6d6d6d;fill-opacity:1;stroke-width:0.20114248"
         id="path4538"
         inkscape:connector-curvature="0" />
    </g>
  </g>
</svg>
