<?xml version="1.0" encoding="UTF-8" standalone="no"?>
<!-- Created with Inkscape (http://www.inkscape.org/) -->

<svg
   xmlns:dc="http://purl.org/dc/elements/1.1/"
   xmlns:cc="http://creativecommons.org/ns#"
   xmlns:rdf="http://www.w3.org/1999/02/22-rdf-syntax-ns#"
   xmlns:svg="http://www.w3.org/2000/svg"
   xmlns="http://www.w3.org/2000/svg"
   xmlns:sodipodi="http://sodipodi.sourceforge.net/DTD/sodipodi-0.dtd"
   xmlns:inkscape="http://www.inkscape.org/namespaces/inkscape"
   width="300"
   height="140"
   viewBox="0 0 79.374998 37.041668"
   version="1.1"
   id="svg8"
   inkscape:version="0.92.0 r15299"
   sodipodi:docname="logo.svg">
  <defs
     id="defs2" />
  <sodipodi:namedview
     id="base"
     pagecolor="#ffffff"
     bordercolor="#666666"
     borderopacity="1.0"
     inkscape:pageopacity="0.0"
     inkscape:pageshadow="2"
     inkscape:zoom="1.979899"
     inkscape:cx="224.78953"
     inkscape:cy="67.94965"
     inkscape:document-units="mm"
     inkscape:current-layer="layer1"
     showgrid="false"
     units="px"
     inkscape:window-width="1920"
     inkscape:window-height="1001"
     inkscape:window-x="-9"
     inkscape:window-y="-9"
     inkscape:window-maximized="1" />
  <metadata
     id="metadata5">
    <rdf:RDF>
      <cc:Work
         rdf:about="">
        <dc:format>image/svg+xml</dc:format>
        <dc:type
           rdf:resource="http://purl.org/dc/dcmitype/StillImage" />
        <dc:title />
      </cc:Work>
    </rdf:RDF>
  </metadata>
  <g
     inkscape:label="Layer 1"
     inkscape:groupmode="layer"
     id="layer1"
     transform="translate(0,-259.95832)">
    <g
       aria-label="The easy way to share"
       style="font-style:normal;font-variant:normal;font-weight:normal;font-stretch:normal;font-size:8.04569912px;line-height:5.02856207px;font-family:'Varela Round';-inkscape-font-specification:'Varela Round';letter-spacing:0px;word-spacing:0px;fill:#6d6d6d;fill-opacity:1;stroke:none;stroke-width:0.20114248"
       id="text4518"
       transform="matrix(0.8902462,0,0,0.8902462,4.4273574,33.742592)">
      <path
         d="m 5.7919553,288.16742 v 0.65572 H 3.9293759 v 5.10902 H 3.1489431 v -5.10902 h -1.870625 v -0.65572 z"
         style="font-style:normal;font-variant:normal;font-weight:normal;font-stretch:normal;font-family:Lato;-inkscape-font-specification:Lato;fill:#6d6d6d;fill-opacity:1;stroke-width:0.20114248"
         id="path4506"
         inkscape:connector-curvature="0" />
      <path
         d="m 6.4987194,293.93216 v -5.92566 h 0.7160672 v 2.39762 q 0.2614853,-0.27758 0.5792904,-0.44251 0.3178051,-0.16896 0.7321586,-0.16896 0.3338965,0 0.587336,0.11264 0.2574624,0.10861 0.4264221,0.31378 0.1729825,0.20114 0.2614852,0.48676 0.088503,0.28563 0.088503,0.63159 v 2.59474 H 9.1739144 v -2.59474 q 0,-0.46263 -0.213211,-0.71607 -0.2091882,-0.25746 -0.643656,-0.25746 -0.3178051,0 -0.5953817,0.15287 -0.2735538,0.15287 -0.5068791,0.41435 v 3.00105 z"
         style="font-style:normal;font-variant:normal;font-weight:normal;font-stretch:normal;font-family:Lato;-inkscape-font-specification:Lato;fill:#6d6d6d;fill-opacity:1;stroke-width:0.20114248"
         id="path4508"
         inkscape:connector-curvature="0" />
      <path
         d="m 12.590445,289.79265 q 0.366079,0 0.675839,0.12471 0.309759,0.12068 0.535039,0.35401 0.225279,0.2293 0.349988,0.57124 0.128731,0.33792 0.128731,0.77239 0,0.16896 -0.03621,0.22528 -0.03621,0.0563 -0.136777,0.0563 h -2.7114 q 0.008,0.38619 0.104594,0.67181 0.09655,0.28563 0.265508,0.47872 0.168959,0.18908 0.402285,0.28562 0.233325,0.0925 0.52297,0.0925 0.269531,0 0.462628,-0.0603 0.197119,-0.0644 0.337919,-0.13678 0.1408,-0.0724 0.233326,-0.13275 0.09655,-0.0644 0.164936,-0.0644 0.0885,0 0.136777,0.0684 l 0.201143,0.26148 q -0.132754,0.16092 -0.317805,0.2816 -0.185051,0.11667 -0.398263,0.1931 -0.209188,0.0764 -0.434467,0.11264 -0.22528,0.0402 -0.446537,0.0402 -0.422399,0 -0.780432,-0.1408 -0.354011,-0.14482 -0.615496,-0.41838 -0.257463,-0.27757 -0.402285,-0.68388 -0.144823,-0.40631 -0.144823,-0.9333 0,-0.42642 0.128731,-0.79653 0.132754,-0.3701 0.378148,-0.63963 0.245394,-0.27355 0.599405,-0.42642 0.35401,-0.15689 0.796524,-0.15689 z m 0.01609,0.52699 q -0.518947,0 -0.816638,0.30171 -0.297691,0.2977 -0.370102,0.82871 h 2.21659 q 0,-0.24942 -0.06839,-0.45458 -0.06839,-0.20919 -0.201142,-0.35803 -0.132754,-0.15287 -0.325851,-0.23333 -0.189074,-0.0845 -0.434468,-0.0845 z"
         style="font-style:normal;font-variant:normal;font-weight:normal;font-stretch:normal;font-family:Lato;-inkscape-font-specification:Lato;fill:#6d6d6d;fill-opacity:1;stroke-width:0.20114248"
         id="path4510"
         inkscape:connector-curvature="0" />
      <path
         d="m 18.357577,289.79265 q 0.366079,0 0.675838,0.12471 0.30976,0.12068 0.535039,0.35401 0.22528,0.2293 0.349988,0.57124 0.128732,0.33792 0.128732,0.77239 0,0.16896 -0.03621,0.22528 -0.03621,0.0563 -0.136777,0.0563 H 17.16279 q 0.008,0.38619 0.104595,0.67181 0.09655,0.28563 0.265508,0.47872 0.168959,0.18908 0.402285,0.28562 0.233325,0.0925 0.52297,0.0925 0.269531,0 0.462628,-0.0603 0.197119,-0.0644 0.337919,-0.13678 0.1408,-0.0724 0.233325,-0.13275 0.09655,-0.0644 0.164937,-0.0644 0.0885,0 0.136777,0.0684 l 0.201143,0.26148 q -0.132755,0.16092 -0.317806,0.2816 -0.185051,0.11667 -0.398262,0.1931 -0.209188,0.0764 -0.434467,0.11264 -0.22528,0.0402 -0.446537,0.0402 -0.422399,0 -0.780433,-0.1408 -0.35401,-0.14482 -0.615496,-0.41838 -0.257462,-0.27757 -0.402285,-0.68388 -0.144822,-0.40631 -0.144822,-0.9333 0,-0.42642 0.128731,-0.79653 0.132754,-0.3701 0.378148,-0.63963 0.245394,-0.27355 0.599405,-0.42642 0.35401,-0.15689 0.796524,-0.15689 z m 0.01609,0.52699 q -0.518947,0 -0.816638,0.30171 -0.297691,0.2977 -0.370102,0.82871 h 2.21659 q 0,-0.24942 -0.06839,-0.45458 -0.06839,-0.20919 -0.201142,-0.35803 -0.132754,-0.15287 -0.325851,-0.23333 -0.189074,-0.0845 -0.434468,-0.0845 z"
         style="font-style:normal;font-variant:normal;font-weight:normal;font-stretch:normal;font-family:Lato;-inkscape-font-specification:Lato;fill:#6d6d6d;fill-opacity:1;stroke-width:0.20114248"
         id="path4512"
         inkscape:connector-curvature="0" />
      <path
         d="m 23.948834,293.93216 h -0.317805 q -0.104594,0 -0.16896,-0.0322 -0.06436,-0.0322 -0.08448,-0.13678 l -0.08046,-0.37815 q -0.160914,0.14482 -0.313783,0.26149 -0.152868,0.11264 -0.321828,0.19309 -0.168959,0.0764 -0.362056,0.11667 -0.189074,0.0402 -0.422399,0.0402 -0.237348,0 -0.446537,-0.0644 -0.205165,-0.0684 -0.358033,-0.20114 -0.152869,-0.13276 -0.245394,-0.3339 -0.0885,-0.20516 -0.0885,-0.48274 0,-0.24137 0.132754,-0.46263 0.132754,-0.22528 0.426422,-0.39826 0.297691,-0.17298 0.77641,-0.2816 0.478719,-0.11264 1.17065,-0.12873 v -0.31781 q 0,-0.47469 -0.205166,-0.71606 -0.201142,-0.2454 -0.599404,-0.2454 -0.261486,0 -0.442514,0.0684 -0.177005,0.0644 -0.309759,0.14885 -0.128731,0.0805 -0.22528,0.14884 -0.09253,0.0644 -0.185051,0.0644 -0.07241,0 -0.128731,-0.0362 -0.0523,-0.0402 -0.08448,-0.0965 l -0.128731,-0.2293 q 0.337919,-0.32585 0.728136,-0.48676 0.390216,-0.16092 0.864912,-0.16092 0.341943,0 0.607451,0.11264 0.265508,0.11264 0.446536,0.31378 0.181028,0.20115 0.273554,0.48677 0.09253,0.28562 0.09253,0.62756 z m -1.858556,-0.43849 q 0.189074,0 0.345965,-0.0362 0.156891,-0.0402 0.293668,-0.10861 0.1408,-0.0724 0.265508,-0.17299 0.128731,-0.10057 0.249417,-0.2293 v -0.84882 q -0.494811,0.0161 -0.840776,0.0805 -0.345965,0.0603 -0.563199,0.16091 -0.217234,0.10057 -0.317805,0.23735 -0.09655,0.13678 -0.09655,0.30574 0,0.16091 0.0523,0.27757 0.0523,0.11666 0.140799,0.1931 0.0885,0.0724 0.209188,0.10862 0.120686,0.0322 0.261486,0.0322 z"
         style="font-style:normal;font-variant:normal;font-weight:normal;font-stretch:normal;font-family:Lato;-inkscape-font-specification:Lato;fill:#6d6d6d;fill-opacity:1;stroke-width:0.20114248"
         id="path4514"
         inkscape:connector-curvature="0" />
      <path
         d="m 27.374794,290.52883 q -0.04828,0.0885 -0.148846,0.0885 -0.06034,0 -0.136777,-0.0442 -0.07643,-0.0442 -0.189074,-0.0965 -0.108617,-0.0563 -0.261485,-0.10057 -0.152868,-0.0483 -0.362056,-0.0483 -0.181029,0 -0.325851,0.0483 -0.144823,0.0442 -0.249417,0.12471 -0.100571,0.0805 -0.156891,0.18907 -0.0523,0.1046 -0.0523,0.22931 0,0.15689 0.0885,0.26148 0.09252,0.10459 0.241371,0.18103 0.148845,0.0764 0.337919,0.13678 0.189074,0.0563 0.386194,0.1247 0.201142,0.0644 0.390216,0.14483 0.189074,0.0804 0.337919,0.20114 0.148846,0.12068 0.237348,0.29769 0.09253,0.17298 0.09253,0.41838 0,0.2816 -0.100571,0.52297 -0.100571,0.23734 -0.297691,0.41435 -0.19712,0.17298 -0.482742,0.27355 -0.285622,0.10058 -0.659747,0.10058 -0.426422,0 -0.772387,-0.13678 -0.345966,-0.1408 -0.587337,-0.35804 l 0.16896,-0.27355 q 0.03218,-0.0523 0.07643,-0.0805 0.04425,-0.0282 0.116663,-0.0282 0.07241,0 0.152868,0.0563 0.08046,0.0563 0.193097,0.12471 0.116663,0.0684 0.277577,0.12471 0.164936,0.0563 0.41033,0.0563 0.209188,0 0.36608,-0.0523 0.156891,-0.0563 0.261485,-0.14884 0.104594,-0.0925 0.152868,-0.21321 0.0523,-0.12069 0.0523,-0.25747 0,-0.16896 -0.09252,-0.27757 -0.0885,-0.11264 -0.237349,-0.18908 -0.148845,-0.0804 -0.341942,-0.13677 -0.189074,-0.0604 -0.390216,-0.12471 -0.19712,-0.0644 -0.390217,-0.14482 -0.189073,-0.0845 -0.337919,-0.20919 -0.148845,-0.12471 -0.241371,-0.30574 -0.0885,-0.18505 -0.0885,-0.44654 0,-0.23332 0.09655,-0.44653 0.09655,-0.21724 0.281599,-0.37815 0.185051,-0.16494 0.454582,-0.26148 0.269531,-0.0966 0.615496,-0.0966 0.402285,0 0.72009,0.12873 0.321828,0.12471 0.555154,0.34596 z"
         style="font-style:normal;font-variant:normal;font-weight:normal;font-stretch:normal;font-family:Lato;-inkscape-font-specification:Lato;fill:#6d6d6d;fill-opacity:1;stroke-width:0.20114248"
         id="path4516"
         inkscape:connector-curvature="0" />
      <path
         d="m 29.724893,295.13499 q -0.03621,0.0805 -0.09253,0.12873 -0.0523,0.0483 -0.164937,0.0483 H 28.93641 l 0.744227,-1.61719 -1.681551,-3.8378 h 0.619519 q 0.09253,0 0.144823,0.0483 0.0523,0.0443 0.07643,0.10057 l 1.090192,2.56658 q 0.03621,0.0885 0.06034,0.177 0.02816,0.0885 0.04827,0.18103 0.02816,-0.0925 0.05632,-0.18103 0.02816,-0.0885 0.06436,-0.18103 l 1.05801,-2.56255 q 0.02414,-0.0644 0.08046,-0.1046 0.06034,-0.0442 0.128731,-0.0442 h 0.571245 z"
         style="font-style:normal;font-variant:normal;font-weight:normal;font-stretch:normal;font-family:Lato;-inkscape-font-specification:Lato;fill:#6d6d6d;fill-opacity:1;stroke-width:0.20114248"
         id="path4518"
         inkscape:connector-curvature="0" />
      <path
         d="m 33.671938,289.85701 h 0.563199 q 0.0885,0 0.144822,0.0442 0.05632,0.0443 0.07644,0.1046 l 0.780432,2.6229 q 0.03218,0.14482 0.06034,0.2816 0.02816,0.13275 0.04827,0.26953 0.03218,-0.13678 0.07241,-0.26953 0.04023,-0.13678 0.08448,-0.2816 l 0.86089,-2.63899 q 0.02011,-0.0604 0.06839,-0.10057 0.0523,-0.0402 0.128731,-0.0402 h 0.309759 q 0.08046,0 0.132754,0.0402 0.0523,0.0402 0.07241,0.10057 l 0.840775,2.63899 q 0.04425,0.1408 0.07643,0.27757 0.03621,0.13678 0.06839,0.26953 0.02011,-0.13275 0.0523,-0.27757 0.03218,-0.14483 0.06839,-0.26953 l 0.796524,-2.6229 q 0.02011,-0.0644 0.07643,-0.1046 0.05632,-0.0442 0.132754,-0.0442 h 0.539061 l -1.319494,4.07515 H 37.83961 q -0.104594,0 -0.144823,-0.13678 l -0.901118,-2.7637 q -0.03218,-0.0925 -0.0523,-0.18505 -0.02011,-0.0965 -0.04023,-0.18907 -0.02011,0.0925 -0.04023,0.18907 -0.02011,0.0965 -0.0523,0.18908 l -0.913187,2.75967 q -0.04425,0.13678 -0.164937,0.13678 h -0.539061 z"
         style="font-style:normal;font-variant:normal;font-weight:normal;font-stretch:normal;font-family:Lato;-inkscape-font-specification:Lato;fill:#6d6d6d;fill-opacity:1;stroke-width:0.20114248"
         id="path4520"
         inkscape:connector-curvature="0" />
      <path
         d="m 43.355943,293.93216 h -0.317806 q -0.104594,0 -0.168959,-0.0322 -0.06437,-0.0322 -0.08448,-0.13678 l -0.08046,-0.37815 q -0.160914,0.14482 -0.313782,0.26149 -0.152869,0.11264 -0.321828,0.19309 -0.16896,0.0764 -0.362057,0.11667 -0.189074,0.0402 -0.422399,0.0402 -0.237348,0 -0.446536,-0.0644 -0.205166,-0.0684 -0.358034,-0.20114 -0.152868,-0.13276 -0.245394,-0.3339 -0.0885,-0.20516 -0.0885,-0.48274 0,-0.24137 0.132754,-0.46263 0.132754,-0.22528 0.426422,-0.39826 0.297691,-0.17298 0.77641,-0.2816 0.478719,-0.11264 1.170649,-0.12873 v -0.31781 q 0,-0.47469 -0.205165,-0.71606 -0.201143,-0.2454 -0.599405,-0.2454 -0.261485,0 -0.442514,0.0684 -0.177005,0.0644 -0.309759,0.14885 -0.128731,0.0805 -0.22528,0.14884 -0.09253,0.0644 -0.185051,0.0644 -0.07241,0 -0.128731,-0.0362 -0.0523,-0.0402 -0.08448,-0.0965 l -0.128731,-0.2293 q 0.33792,-0.32585 0.728136,-0.48676 0.390216,-0.16092 0.864913,-0.16092 0.341942,0 0.60745,0.11264 0.265508,0.11264 0.446536,0.31378 0.181028,0.20115 0.273554,0.48677 0.09253,0.28562 0.09253,0.62756 z m -1.858557,-0.43849 q 0.189074,0 0.345965,-0.0362 0.156891,-0.0402 0.293668,-0.10861 0.1408,-0.0724 0.265508,-0.17299 0.128731,-0.10057 0.249417,-0.2293 v -0.84882 q -0.494811,0.0161 -0.840776,0.0805 -0.345965,0.0603 -0.563199,0.16091 -0.217234,0.10057 -0.317805,0.23735 -0.09655,0.13678 -0.09655,0.30574 0,0.16091 0.0523,0.27757 0.0523,0.11666 0.1408,0.1931 0.0885,0.0724 0.209188,0.10862 0.120685,0.0322 0.261485,0.0322 z"
         style="font-style:normal;font-variant:normal;font-weight:normal;font-stretch:normal;font-family:Lato;-inkscape-font-specification:Lato;fill:#6d6d6d;fill-opacity:1;stroke-width:0.20114248"
         id="path4522"
         inkscape:connector-curvature="0" />
      <path
         d="m 45.51772,295.13499 q -0.0362,0.0805 -0.09252,0.12873 -0.0523,0.0483 -0.164937,0.0483 h -0.531016 l 0.744227,-1.61719 -1.681551,-3.8378 h 0.619519 q 0.09253,0 0.144822,0.0483 0.0523,0.0443 0.07643,0.10057 l 1.090193,2.56658 q 0.0362,0.0885 0.06034,0.177 0.02816,0.0885 0.04827,0.18103 0.02816,-0.0925 0.05632,-0.18103 0.02816,-0.0885 0.06437,-0.18103 l 1.058009,-2.56255 q 0.02414,-0.0644 0.08046,-0.1046 0.06034,-0.0442 0.128732,-0.0442 h 0.571244 z"
         style="font-style:normal;font-variant:normal;font-weight:normal;font-stretch:normal;font-family:Lato;-inkscape-font-specification:Lato;fill:#6d6d6d;fill-opacity:1;stroke-width:0.20114248"
         id="path4524"
         inkscape:connector-curvature="0" />
      <path
         d="m 51.230796,293.99653 q -0.482741,0 -0.744227,-0.26954 -0.257462,-0.26953 -0.257462,-0.77641 v -2.49416 h -0.490788 q -0.06436,0 -0.108617,-0.0362 -0.04425,-0.0402 -0.04425,-0.12068 v -0.28563 l 0.667793,-0.0845 0.164937,-1.25915 q 0.008,-0.0603 0.0523,-0.0966 0.04425,-0.0402 0.11264,-0.0402 h 0.362056 v 1.40397 h 1.166627 v 0.51895 h -1.166627 v 2.44589 q 0,0.25746 0.124708,0.38217 0.124709,0.12471 0.321828,0.12471 0.11264,0 0.193097,-0.0282 0.08448,-0.0322 0.144823,-0.0684 0.06034,-0.0362 0.100571,-0.0644 0.04425,-0.0322 0.07643,-0.0322 0.05632,0 0.100571,0.0684 l 0.209189,0.34194 q -0.185051,0.17299 -0.446537,0.27356 -0.261485,0.0965 -0.539062,0.0965 z"
         style="font-style:normal;font-variant:normal;font-weight:normal;font-stretch:normal;font-family:Lato;-inkscape-font-specification:Lato;fill:#6d6d6d;fill-opacity:1;stroke-width:0.20114248"
         id="path4526"
         inkscape:connector-curvature="0" />
      <path
         d="m 54.646573,289.79265 q 0.446536,0 0.80457,0.14884 0.362056,0.14885 0.611473,0.4224 0.253439,0.27356 0.386193,0.66377 0.136777,0.3862 0.136777,0.86491 0,0.48275 -0.136777,0.86894 -0.132754,0.38619 -0.386193,0.65975 -0.249417,0.27355 -0.611473,0.4224 -0.358034,0.14482 -0.80457,0.14482 -0.446536,0 -0.808593,-0.14482 -0.358034,-0.14885 -0.611473,-0.4224 -0.25344,-0.27356 -0.390216,-0.65975 -0.136777,-0.38619 -0.136777,-0.86894 0,-0.47871 0.136777,-0.86491 0.136776,-0.39021 0.390216,-0.66377 0.253439,-0.27355 0.611473,-0.4224 0.362057,-0.14884 0.808593,-0.14884 z m 0,3.63665 q 0.603427,0 0.901118,-0.40228 0.297691,-0.40631 0.297691,-1.13042 0,-0.72814 -0.297691,-1.13445 -0.297691,-0.4063 -0.901118,-0.4063 -0.305737,0 -0.531016,0.10459 -0.22528,0.10459 -0.378148,0.30171 -0.148846,0.19712 -0.22528,0.48677 -0.07241,0.28562 -0.07241,0.64768 0,0.36205 0.07241,0.64768 0.07643,0.28562 0.22528,0.48274 0.152868,0.1931 0.378148,0.29769 0.225279,0.10459 0.531016,0.10459 z"
         style="font-style:normal;font-variant:normal;font-weight:normal;font-stretch:normal;font-family:Lato;-inkscape-font-specification:Lato;fill:#6d6d6d;fill-opacity:1;stroke-width:0.20114248"
         id="path4528"
         inkscape:connector-curvature="0" />
      <path
         d="m 61.364728,290.52883 q -0.04827,0.0885 -0.148845,0.0885 -0.06034,0 -0.136777,-0.0442 -0.07643,-0.0442 -0.189074,-0.0965 -0.108617,-0.0563 -0.261485,-0.10057 -0.152868,-0.0483 -0.362056,-0.0483 -0.181029,0 -0.325851,0.0483 -0.144823,0.0442 -0.249417,0.12471 -0.100571,0.0805 -0.156891,0.18907 -0.0523,0.1046 -0.0523,0.22931 0,0.15689 0.0885,0.26148 0.09253,0.10459 0.241371,0.18103 0.148845,0.0764 0.337919,0.13678 0.189074,0.0563 0.386193,0.1247 0.201143,0.0644 0.390217,0.14483 0.189074,0.0804 0.337919,0.20114 0.148846,0.12068 0.237348,0.29769 0.09253,0.17298 0.09253,0.41838 0,0.2816 -0.100571,0.52297 -0.100572,0.23734 -0.297691,0.41435 -0.19712,0.17298 -0.482742,0.27355 -0.285622,0.10058 -0.659747,0.10058 -0.426423,0 -0.772388,-0.13678 -0.345965,-0.1408 -0.587336,-0.35804 l 0.16896,-0.27355 q 0.03218,-0.0523 0.07643,-0.0805 0.04425,-0.0282 0.116663,-0.0282 0.07241,0 0.152868,0.0563 0.08046,0.0563 0.193097,0.12471 0.116663,0.0684 0.277577,0.12471 0.164936,0.0563 0.41033,0.0563 0.209188,0 0.366079,-0.0523 0.156892,-0.0563 0.261486,-0.14884 0.104594,-0.0925 0.152868,-0.21321 0.0523,-0.12069 0.0523,-0.25747 0,-0.16896 -0.09253,-0.27757 -0.0885,-0.11264 -0.237349,-0.18908 -0.148845,-0.0804 -0.341942,-0.13677 -0.189074,-0.0604 -0.390216,-0.12471 -0.19712,-0.0644 -0.390217,-0.14482 -0.189074,-0.0845 -0.337919,-0.20919 -0.148845,-0.12471 -0.241371,-0.30574 -0.0885,-0.18505 -0.0885,-0.44654 0,-0.23332 0.09655,-0.44653 0.09655,-0.21724 0.281599,-0.37815 0.185051,-0.16494 0.454582,-0.26148 0.269531,-0.0966 0.615496,-0.0966 0.402285,0 0.72009,0.12873 0.321828,0.12471 0.555153,0.34596 z"
         style="font-style:normal;font-variant:normal;font-weight:normal;font-stretch:normal;font-family:Lato;-inkscape-font-specification:Lato;fill:#6d6d6d;fill-opacity:1;stroke-width:0.20114248"
         id="path4530"
         inkscape:connector-curvature="0" />
      <path
         d="m 62.520043,293.93216 v -5.92566 h 0.716067 v 2.39762 q 0.261486,-0.27758 0.579291,-0.44251 0.317805,-0.16896 0.732158,-0.16896 0.333897,0 0.587336,0.11264 0.257463,0.10861 0.426422,0.31378 0.172983,0.20114 0.261486,0.48676 0.0885,0.28563 0.0885,0.63159 v 2.59474 h -0.716067 v -2.59474 q 0,-0.46263 -0.213211,-0.71607 -0.209188,-0.25746 -0.643656,-0.25746 -0.317805,0 -0.595382,0.15287 -0.273553,0.15287 -0.506879,0.41435 v 3.00105 z"
         style="font-style:normal;font-variant:normal;font-weight:normal;font-stretch:normal;font-family:Lato;-inkscape-font-specification:Lato;fill:#6d6d6d;fill-opacity:1;stroke-width:0.20114248"
         id="path4532"
         inkscape:connector-curvature="0" />
      <path
         d="m 69.991605,293.93216 h -0.317806 q -0.104594,0 -0.168959,-0.0322 -0.06437,-0.0322 -0.08448,-0.13678 l -0.08046,-0.37815 q -0.160914,0.14482 -0.313782,0.26149 -0.152869,0.11264 -0.321828,0.19309 -0.16896,0.0764 -0.362057,0.11667 -0.189074,0.0402 -0.422399,0.0402 -0.237348,0 -0.446536,-0.0644 -0.205166,-0.0684 -0.358034,-0.20114 -0.152868,-0.13276 -0.245394,-0.3339 -0.0885,-0.20516 -0.0885,-0.48274 0,-0.24137 0.132754,-0.46263 0.132754,-0.22528 0.426422,-0.39826 0.297691,-0.17298 0.77641,-0.2816 0.478719,-0.11264 1.170649,-0.12873 v -0.31781 q 0,-0.47469 -0.205165,-0.71606 -0.201143,-0.2454 -0.599405,-0.2454 -0.261485,0 -0.442513,0.0684 -0.177006,0.0644 -0.30976,0.14885 -0.128731,0.0805 -0.225279,0.14884 -0.09253,0.0644 -0.185052,0.0644 -0.07241,0 -0.128731,-0.0362 -0.0523,-0.0402 -0.08448,-0.0965 l -0.128731,-0.2293 q 0.33792,-0.32585 0.728136,-0.48676 0.390216,-0.16092 0.864913,-0.16092 0.341942,0 0.60745,0.11264 0.265508,0.11264 0.446536,0.31378 0.181029,0.20115 0.273554,0.48677 0.09253,0.28562 0.09253,0.62756 z m -1.858557,-0.43849 q 0.189074,0 0.345965,-0.0362 0.156891,-0.0402 0.293668,-0.10861 0.1408,-0.0724 0.265508,-0.17299 0.128731,-0.10057 0.249417,-0.2293 v -0.84882 q -0.494811,0.0161 -0.840776,0.0805 -0.345965,0.0603 -0.563199,0.16091 -0.217233,0.10057 -0.317805,0.23735 -0.09655,0.13678 -0.09655,0.30574 0,0.16091 0.0523,0.27757 0.0523,0.11666 0.1408,0.1931 0.0885,0.0724 0.209188,0.10862 0.120685,0.0322 0.261485,0.0322 z"
         style="font-style:normal;font-variant:normal;font-weight:normal;font-stretch:normal;font-family:Lato;-inkscape-font-specification:Lato;fill:#6d6d6d;fill-opacity:1;stroke-width:0.20114248"
         id="path4534"
         inkscape:connector-curvature="0" />
      <path
         d="m 71.084313,293.93216 v -4.07515 h 0.410331 q 0.116662,0 0.160914,0.0442 0.04425,0.0443 0.06034,0.15287 l 0.04827,0.63561 q 0.209188,-0.42642 0.514924,-0.66377 0.30976,-0.24137 0.724113,-0.24137 0.16896,0 0.305737,0.0402 0.136777,0.0362 0.253439,0.10459 l -0.09252,0.53504 q -0.02816,0.10057 -0.124708,0.10057 -0.05632,0 -0.172983,-0.0362 -0.116663,-0.0402 -0.325851,-0.0402 -0.374125,0 -0.627564,0.21723 -0.249417,0.21724 -0.418377,0.63159 v 2.59474 z"
         style="font-style:normal;font-variant:normal;font-weight:normal;font-stretch:normal;font-family:Lato;-inkscape-font-specification:Lato;fill:#6d6d6d;fill-opacity:1;stroke-width:0.20114248"
         id="path4536"
         inkscape:connector-curvature="0" />
      <path
         d="m 75.934613,289.79265 q 0.366079,0 0.675838,0.12471 0.30976,0.12068 0.535039,0.35401 0.22528,0.2293 0.349988,0.57124 0.128731,0.33792 0.128731,0.77239 0,0.16896 -0.0362,0.22528 -0.03621,0.0563 -0.136777,0.0563 h -2.711401 q 0.008,0.38619 0.104594,0.67181 0.09655,0.28563 0.265508,0.47872 0.16896,0.18908 0.402285,0.28562 0.233326,0.0925 0.522971,0.0925 0.269531,0 0.462628,-0.0603 0.197119,-0.0644 0.337919,-0.13678 0.1408,-0.0724 0.233325,-0.13275 0.09655,-0.0644 0.164937,-0.0644 0.0885,0 0.136777,0.0684 l 0.201142,0.26148 q -0.132754,0.16092 -0.317805,0.2816 -0.185051,0.11667 -0.398262,0.1931 -0.209188,0.0764 -0.434468,0.11264 -0.225279,0.0402 -0.446536,0.0402 -0.422399,0 -0.780433,-0.1408 -0.35401,-0.14482 -0.615496,-0.41838 -0.257462,-0.27757 -0.402285,-0.68388 -0.144822,-0.40631 -0.144822,-0.9333 0,-0.42642 0.128731,-0.79653 0.132754,-0.3701 0.378148,-0.63963 0.245394,-0.27355 0.599404,-0.42642 0.354011,-0.15689 0.796525,-0.15689 z m 0.01609,0.52699 q -0.518948,0 -0.816638,0.30171 -0.297691,0.2977 -0.370103,0.82871 h 2.216591 q 0,-0.24942 -0.06839,-0.45458 -0.06839,-0.20919 -0.201142,-0.35803 -0.132754,-0.15287 -0.325851,-0.23333 -0.189074,-0.0845 -0.434468,-0.0845 z"
         style="font-style:normal;font-variant:normal;font-weight:normal;font-stretch:normal;font-family:Lato;-inkscape-font-specification:Lato;fill:#6d6d6d;fill-opacity:1;stroke-width:0.20114248"
         id="path4538"
         inkscape:connector-curvature="0" />
    </g>
    <g
       aria-label="Lend"
       style="font-style:normal;font-variant:normal;font-weight:normal;font-stretch:normal;font-size:20.08359146px;line-height:12.55224419px;font-family:'Varela Round';-inkscape-font-specification:'Varela Round';letter-spacing:0px;word-spacing:0px;fill:#00acff;fill-opacity:1;stroke:none;stroke-width:0.5020898"
       id="text4502">
      <path
         d="m 19.141146,281.52679 q -0.522173,0 -0.903761,-0.3615 -0.361505,-0.38159 -0.361505,-0.90376 v -11.92966 q 0,-0.38158 0.261087,-0.64267 0.261086,-0.28117 0.642675,-0.28117 0.381588,0 0.642674,0.28117 0.281171,0.26109 0.281171,0.64267 v 11.36732 h 6.567334 q 0.381588,0 0.642675,0.28117 0.28117,0.26108 0.28117,0.64267 0,0.38159 -0.28117,0.64268 -0.261087,0.26108 -0.642675,0.26108 z"
         style="fill:#00acff;fill-opacity:1;stroke-width:0.5020898"
         id="path4525" />
      <path
         d="m 33.665035,281.72763 q -2.450198,0 -3.835966,-1.38577 -1.365684,-1.40585 -1.365684,-3.93638 0,-1.42594 0.522173,-2.63095 0.522174,-1.20502 1.606688,-1.94811 1.084514,-0.74309 2.671117,-0.74309 1.486186,0 2.5707,0.70292 1.084514,0.68284 1.646854,1.84769 0.562341,1.14477 0.562341,2.51045 0,0.38159 -0.261087,0.64268 -0.241003,0.26108 -0.662758,0.26108 h -6.808338 q 0.160669,1.40585 1.044347,2.18912 0.883678,0.78326 2.470282,0.78326 0.843511,0 1.466102,-0.16067 0.642675,-0.16067 1.245183,-0.46193 0.160668,-0.0803 0.361504,-0.0803 0.321338,0 0.562341,0.22092 0.241003,0.22092 0.241003,0.56234 0,0.44184 -0.522173,0.74309 -0.783261,0.44184 -1.546437,0.66276 -0.763176,0.22092 -1.968192,0.22092 z m 2.5707,-6.16566 q -0.06025,-0.9841 -0.522174,-1.64686 -0.441839,-0.66276 -1.104597,-0.96401 -0.662759,-0.32134 -1.345601,-0.32134 -0.682842,0 -1.3456,0.32134 -0.662759,0.30125 -1.104598,0.96401 -0.441839,0.66276 -0.50209,1.64686 z"
         style="fill:#00acff;fill-opacity:1;stroke-width:0.5020898"
         id="path4527" />
      <path
         d="m 41.36521,281.62721 q -0.381588,0 -0.642675,-0.26108 -0.261087,-0.26109 -0.261087,-0.64268 v -8.61586 q 0,-0.38159 0.261087,-0.64267 0.261087,-0.28118 0.642675,-0.28118 0.381588,0 0.642675,0.28118 0.28117,0.26108 0.28117,0.64267 v 0.82343 q 0.763177,-0.84351 1.646855,-1.3456 0.883678,-0.50209 2.088693,-0.50209 1.104598,0 1.907941,0.52217 0.823428,0.52217 1.245183,1.42594 0.441839,0.90376 0.441839,1.98827 v 5.70374 q 0,0.38159 -0.28117,0.64268 -0.261087,0.26108 -0.642675,0.26108 -0.381588,0 -0.642675,-0.26108 -0.261087,-0.26109 -0.261087,-0.64268 v -5.5029 q 0,-2.4502 -2.209195,-2.4502 -1.004179,0 -1.807523,0.52217 -0.78326,0.52218 -1.486186,1.40585 v 6.02508 q 0,0.38159 -0.28117,0.64268 -0.261087,0.26108 -0.642675,0.26108 z"
         style="fill:#00acff;fill-opacity:1;stroke-width:0.5020898"
         id="path4529" />
      <path
         d="m 56.937526,281.72763 q -1.245183,0 -2.369864,-0.62259 -1.104598,-0.64268 -1.807523,-1.84769 -0.682842,-1.2251 -0.682842,-2.85187 0,-1.62677 0.682842,-2.83179 0.702925,-1.2251 1.807523,-1.84769 1.124681,-0.64267 2.369864,-0.64267 1.968192,0 3.434294,1.52635 v -4.92048 q 0,-0.40167 0.261086,-0.66276 0.281171,-0.26109 0.662759,-0.26109 0.381588,0 0.642675,0.28117 0.261087,0.26109 0.261087,0.64268 v 13.03425 q 0,0.38159 -0.261087,0.64268 -0.261087,0.26108 -0.642675,0.26108 -0.381588,0 -0.662759,-0.26108 -0.261086,-0.26109 -0.261086,-0.64268 v -0.52217 q -1.466102,1.52635 -3.434294,1.52635 z m 0.261086,-1.7071 q 0.923846,0 1.727189,-0.40168 0.823427,-0.42175 1.446019,-1.10459 v -4.21756 q -0.622592,-0.68284 -1.446019,-1.08451 -0.803343,-0.42176 -1.727189,-0.42176 -1.486185,0 -2.389947,0.94393 -0.903762,0.94393 -0.903762,2.67112 0,1.72719 0.903762,2.67112 0.903762,0.94393 2.389947,0.94393 z"
         style="fill:#00acff;fill-opacity:1;stroke-width:0.5020898"
         id="path4531" />
    </g>
    <path
       style="fill:#00acff;fill-opacity:1;stroke:none;stroke-width:1.05988526;stroke-miterlimit:4;stroke-dasharray:none;stroke-opacity:1"
       d="m 18.6702,264.61626 c 0,0 8.21142,-2.16205 21.073444,-2.15907 12.862025,0.003 21.34333,2.15907 21.34333,2.15907 0.359533,0.036 0.65222,0.29089 0.65222,0.65222 0,0.36133 -0.29089,0.65222 -0.65222,0.65222 0,0 -10.405988,-2.42727 -21.388311,-2.38398 -10.982323,0.0433 -21.028463,2.38398 -21.028463,2.38398 -0.35908,0.0403 -0.65222,-0.29089 -0.65222,-0.65222 0,-0.36133 0.29089,-0.65222 0.65222,-0.65222 z"
       id="rect4528"
       inkscape:connector-curvature="0"
       sodipodi:nodetypes="szssszsss" />
    <rect
       style="fill:#00acff;fill-opacity:1;stroke:none;stroke-width:1.11321497;stroke-miterlimit:4;stroke-dasharray:none;stroke-opacity:1"
       id="rect4531-4-2"
       width="7.9615793"
       height="1.1245168"
       x="196.74886"
       y="-180.60835"
       ry="0.56225842"
       transform="matrix(0.81309644,0.582129,0.582129,-0.81309644,0,0)"
       inkscape:transform-center-x="2.8531406"
       inkscape:transform-center-y="-1.955606" />
    <rect
       style="fill:#00acff;fill-opacity:1;stroke:none;stroke-width:1.11321497;stroke-miterlimit:4;stroke-dasharray:none;stroke-opacity:1"
       id="rect4531-4-2-5"
       width="7.9615793"
       height="1.1245168"
       x="-7.3561702"
       y="-272.91"
       ry="0.56225842"
       transform="matrix(0.97453067,-0.22425427,-0.22425427,-0.97453067,0,0)"
       inkscape:transform-center-x="3.3543285"
       inkscape:transform-center-y="0.84454181" />
    <path
       style="fill:#00acff;fill-opacity:1;stroke:none;stroke-width:1.05988526;stroke-miterlimit:4;stroke-dasharray:none;stroke-opacity:1"
       d="m 61.5846,285.59571 c 0,0 -8.211423,2.16204 -21.073449,2.15907 -12.862021,-0.003 -21.343331,-2.15907 -21.343331,-2.15907 -0.35953,-0.036 -0.65222,-0.29089 -0.65222,-0.65222 0,-0.36133 0.29089,-0.65222 0.65222,-0.65222 0,0 10.40599,2.42727 21.388311,2.38397 10.982326,-0.0433 21.028469,-2.38397 21.028469,-2.38397 0.359078,-0.0403 0.65222,0.29089 0.65222,0.65222 0,0.36133 -0.29089,0.65222 -0.65222,0.65222 z"
       id="rect4528-4"
       inkscape:connector-curvature="0"
       sodipodi:nodetypes="szssszsss" />
    <rect
       style="fill:#00acff;fill-opacity:1;stroke:none;stroke-width:1.11321497;stroke-miterlimit:4;stroke-dasharray:none;stroke-opacity:1"
       id="rect4531-4-2-2"
       width="7.9615793"
       height="1.1245168"
       x="-169.14738"
       y="234.82956"
       ry="0.56225842"
       transform="matrix(-0.86015249,-0.51003695,-0.51003695,0.86015249,0,0)"
       inkscape:transform-center-x="-3.0107756"
       inkscape:transform-center-y="1.7029559" />
    <rect
       style="fill:#00acff;fill-opacity:1;stroke:none;stroke-width:1.11321497;stroke-miterlimit:4;stroke-dasharray:none;stroke-opacity:1"
       id="rect4531-4-2-5-3"
       width="7.9615793"
       height="1.1245168"
       x="21.047195"
       y="283.47125"
       ry="0.56225842"
       transform="matrix(-0.98609983,0.16615392,0.16615392,0.98609983,0,0)"
       inkscape:transform-center-x="-3.3984589"
       inkscape:transform-center-y="-0.6444339" />
  </g>
</svg>
